<svg width="160" height="28" viewBox="0 0 160 28" fill="none" xmlns="http://www.w3.org/2000/svg">
<g clip-path="url(#clip0_202_548)">
<path d="M80.1402 27.3175C79.6516 27.3175 79.2672 26.8207 78.8868 26.0816L77.7216 22.8103L72.328 7.66537C72.1958 7.29381 72.2479 6.86571 72.5001 6.55878C72.7084 6.30434 72.9566 6.16703 73.2569 6.16703C73.5572 6.16703 73.5532 5.62585 73.2569 5.62585H65.4968C65.2005 5.62585 65.2005 6.16703 65.4968 6.16703C65.741 6.16703 65.9533 6.25588 66.1334 6.42954C66.4818 6.75263 66.5619 7.27766 66.4017 7.72595L60.1992 24.9993L60.0791 25.3345C59.6226 26.5784 59.0941 27.3134 58.4574 27.3134C58.2091 27.3134 58.2091 27.7617 58.4574 27.7617H64.9322C65.1804 27.7617 65.1804 27.3134 64.9322 27.3134C64.4036 27.3134 64.1754 26.8207 64.1353 25.9524L65.1925 22.8022H73.5693V22.8103L73.6774 23.1213L73.8936 23.7715C73.9176 23.8361 73.9416 23.9008 73.9617 23.9694C74.3701 25.2941 74.3301 27.3175 73.6694 27.3175C73.4211 27.3175 73.4211 27.7658 73.6694 27.7658H80.1442C80.3924 27.7658 80.3924 27.3175 80.1442 27.3175H80.1402ZM71.8515 19.5511H66.8902C66.5899 19.5511 66.3817 19.2563 66.4778 18.9696L67.1585 16.9502L67.2827 16.5868L68.6441 12.5441C68.7282 12.2937 68.8123 12.0231 68.8923 11.7283C69.0285 11.2678 69.6692 11.2638 69.8133 11.7202C69.9094 12.0312 70.0015 12.3179 70.0696 12.5118L71.455 16.5908L72.2639 18.9736C72.36 19.2603 72.1518 19.5552 71.8515 19.5552V19.5511Z" fill="#F8F8F9"/>
<path d="M6.1905 9.10313C5.99429 9.10313 5.83413 9.26468 5.83413 9.46257V14.3009C5.83413 14.5392 6.02633 14.733 6.26258 14.733H12.0326C12.2689 14.733 12.4611 14.9269 12.4611 15.1652V18.7838C12.4611 19.1675 12.1888 19.3371 11.8484 19.1675C10.3068 18.4001 8.3808 18.1618 7.13549 18.0891H7.11147C6.77111 18.0689 6.48281 18.0609 6.26258 18.0609H6.23855C6.1865 18.0609 6.13444 18.0689 6.08639 18.0891H6.11042C5.95025 18.1457 5.83413 18.3072 5.83413 18.489V23.8927C5.83413 24.0906 5.99429 24.2521 6.1905 24.2521H6.97933C9.15361 24.2521 13.9707 24.1148 15.4122 22.8951C15.5844 22.7497 15.9087 22.669 15.9087 22.8951V27.7456H1.64172V10.7226C1.53762 7.91576 1.19726 6.06202 0.188198 6.06202C-0.0600625 6.06202 -0.0600625 5.61373 0.188198 5.61373H15.9047V10.4601C15.9047 10.6863 15.5804 10.6055 15.4082 10.4601C15.3161 10.3793 15.208 10.3066 15.0878 10.238C14.9117 10.133 14.7034 10.0361 14.4752 9.95125C12.4851 9.20006 8.80124 9.10313 6.97933 9.10313H6.1905Z" fill="#F8F8F9"/>
<path d="M34.3361 22.9476V27.2852C34.3361 27.5396 34.1318 27.7456 33.8796 27.7456H18.3112C18.0429 27.7456 18.0429 27.265 18.3112 27.265C19.5686 27.265 19.8609 24.5631 19.9009 20.6779C19.9009 20.5487 19.9009 20.4154 19.9009 20.2821V14.8703C19.9009 14.5553 19.9009 14.2443 19.9009 13.9414C19.8689 9.37372 19.5686 6.16299 18.111 6.16299C17.8147 6.16299 17.8147 5.62181 18.111 5.62181H25.8712C26.1675 5.62181 26.1675 6.16299 25.8712 6.16299C24.9582 6.16299 24.5017 7.43113 24.2775 9.49488C24.1614 10.5813 24.1053 11.8898 24.0893 13.3558C24.0813 13.8486 24.0813 14.3493 24.0813 14.8744V24.0744C24.0813 24.2764 24.2455 24.4379 24.4417 24.4339C25.4067 24.4218 28.0254 24.3854 28.8703 24.3289C29.3068 24.3127 29.7192 24.2925 30.1076 24.2602C31.6492 24.1471 32.7944 23.9412 33.371 23.5777C33.6473 23.404 33.7995 23.198 33.7995 22.9517C33.7995 22.7053 34.3321 22.7094 34.3321 22.9517L34.3361 22.9476Z" fill="#F8F8F9"/>
<path d="M131.854 9.12332C131.658 9.12332 131.498 9.28487 131.498 9.48276V14.3211C131.498 14.5594 131.69 14.7532 131.927 14.7532H137.697C137.933 14.7532 138.125 14.9471 138.125 15.1853V18.804C138.125 19.1877 137.853 19.3573 137.512 19.1877C135.971 18.4203 134.045 18.182 132.799 18.1093H132.775C132.435 18.0891 132.147 18.0811 131.927 18.0811H131.902C131.85 18.0811 131.798 18.0891 131.75 18.1093H131.774C131.614 18.1659 131.498 18.3274 131.498 18.5092V23.9129C131.498 24.1108 131.658 24.2723 131.854 24.2723H132.643C134.818 24.2723 139.635 24.135 141.076 22.9153C141.248 22.7699 141.573 22.6892 141.573 22.9153V27.7658H127.31V10.7428C127.206 7.93596 126.865 6.08222 125.856 6.08222C125.608 6.08222 125.608 5.63393 125.856 5.63393H141.573V10.4803C141.573 10.7065 141.248 10.6257 141.076 10.4803C140.984 10.3995 140.876 10.3268 140.756 10.2582C140.58 10.1532 140.371 10.0563 140.143 9.97144C138.153 9.22025 134.469 9.12332 132.647 9.12332H131.858H131.854Z" fill="#F8F8F9"/>
<path d="M160 22.9678V27.3053C160 27.5598 159.796 27.7658 159.544 27.7658H143.975C143.707 27.7658 143.707 27.2852 143.975 27.2852C145.232 27.2852 145.525 24.5833 145.565 20.6981C145.565 20.5689 145.565 20.4356 145.565 20.3023V14.8905C145.565 14.5755 145.565 14.2645 145.565 13.9616C145.533 9.39391 145.232 6.18318 143.775 6.18318C143.479 6.18318 143.479 5.642 143.775 5.642H151.535C151.831 5.642 151.831 6.18318 151.535 6.18318C150.622 6.18318 150.166 7.45132 149.941 9.51507C149.825 10.6015 149.769 11.91 149.753 13.376C149.745 13.8687 149.745 14.3695 149.745 14.8946V24.0946C149.745 24.2965 149.909 24.4581 150.106 24.4541C151.071 24.4419 153.689 24.4056 154.534 24.3491C154.971 24.3329 155.383 24.3127 155.772 24.2804C157.313 24.1673 158.458 23.9613 159.035 23.5979C159.311 23.4242 159.463 23.2182 159.463 22.9719C159.463 22.7255 159.996 22.7295 159.996 22.9719L160 22.9678Z" fill="#F8F8F9"/>
<path d="M58.8538 6.16299C57.9408 6.16299 57.4844 7.43113 57.2601 9.49488C57.148 10.5369 57.092 11.7848 57.0719 13.1741C57.0719 13.2347 57.0719 13.2953 57.0719 13.3558C57.0639 13.8485 57.0639 14.3493 57.0639 14.8744V21.2554C56.9038 24.9266 54.9016 27.0994 51.7704 27.7496C51.0936 27.895 50.3689 27.9636 49.5921 27.9636C46.9733 27.9636 45.0513 26.7521 43.9782 25.8555C43.826 25.7262 43.806 25.5001 43.9341 25.3466L45.9442 22.9396C46.0764 22.778 46.3166 22.7659 46.4648 22.9113C47.1495 23.5777 48.1826 24.2764 49.524 24.2764C51.6022 24.2764 52.7554 23.4363 52.8755 21.2393C52.8835 21.1181 52.8835 20.9889 52.8835 20.8556V14.8744C52.8835 14.5594 52.8835 14.2484 52.8835 13.9455C52.8515 9.37776 52.5512 6.16703 51.0937 6.16703C50.7973 6.16703 50.7973 5.62585 51.0937 5.62585H58.8538C59.1501 5.62585 59.1501 6.16703 58.8538 6.16703V6.16299Z" fill="#F8F8F9"/>
<path d="M99.7607 17.3864V27.3134C99.7607 27.5638 99.5605 27.7617 99.3123 27.7617H97.3662C97.146 27.7617 96.9538 27.6002 96.9218 27.378L96.7376 26.1624C96.6815 25.7909 96.229 25.6535 95.9688 25.9241C95.5403 26.3765 95.0478 26.7561 94.4872 27.063C93.362 27.6809 91.9806 28 90.3549 28C89.2057 28 88.1285 27.8263 87.1395 27.5032C85.8021 27.063 84.6329 26.3401 83.6679 25.3708C81.6898 23.3959 80.5446 20.3952 80.5446 16.6998C80.5446 9.82605 84.801 5.39968 90.7153 5.39968C96.6295 5.39968 99.2562 9.4868 99.4484 12.6612C99.4644 12.8954 99.3003 13.1054 99.068 13.1377L96.0929 13.6062C95.8406 13.6426 95.6044 13.4608 95.5844 13.2024C95.5844 13.166 95.5764 13.1337 95.5723 13.0974C95.3401 11.1588 93.9547 9.08697 90.7833 9.08697C87.4598 9.08697 84.765 11.8696 84.765 16.6998C84.765 19.4623 85.6219 21.6876 87.1395 23.0325C88.1606 23.9371 89.486 24.446 91.0516 24.446C92.4931 24.446 93.6383 24.1027 94.4872 23.505C95.5443 22.7619 96.1369 21.623 96.2491 20.274C96.2731 20.0075 96.0609 19.7813 95.8006 19.7813H92.413C91.7563 19.7813 91.1237 20.1165 90.8154 20.7021C90.6712 20.9727 90.6151 21.2514 90.6151 21.4614C90.6151 21.6876 90.1186 21.6876 90.1186 21.4614V17.3864C90.1186 17.1481 90.3028 16.9543 90.5351 16.9381C90.5431 16.9381 90.5591 16.9381 90.5671 16.9381H99.3123C99.5605 16.9381 99.7607 17.1401 99.7607 17.3905V17.3864Z" fill="#F8F8F9"/>
<path d="M116.25 0C115.117 0 114.156 0.973316 114.156 2.11222C114.156 3.25112 115.121 4.22443 116.25 4.22443C117.379 4.22443 118.344 3.28343 118.344 2.11222C118.344 0.941007 117.411 0 116.25 0ZM109.567 0C108.406 0 107.477 0.973316 107.477 2.11222C107.477 3.25112 108.406 4.22443 109.567 4.22443C110.728 4.22443 111.629 3.28343 111.629 2.11222C111.629 0.941007 110.696 0 109.567 0Z" fill="#F8F8F9"/>
<path d="M123.538 6.18722C122.332 6.18722 121.924 8.46502 121.8 11.9181H121.792C121.784 12.3502 121.78 13.0247 121.772 13.8162V19.0786C121.772 24.4783 118.112 28 112.758 28C107.405 28 103.681 24.4783 103.681 19.0786V17.6489H103.669C103.661 15.5165 103.653 12.9843 103.637 11.9181H103.629C103.505 8.46502 103.096 6.18722 101.887 6.18722C101.591 6.18722 101.591 5.63393 101.887 5.63393H109.631C109.931 5.63393 109.931 6.18722 109.631 6.18722C108.426 6.18722 108.017 8.46502 107.893 11.9181H107.885C107.885 12.1846 107.877 12.5441 107.873 12.9641V19.0503C107.873 22.4024 109.867 24.3167 112.758 24.3167C115.649 24.3167 117.579 22.4024 117.579 19.0827V17.653H117.571C117.563 15.5206 117.555 12.9883 117.539 11.9221H117.531C117.407 8.46906 116.999 6.19126 115.79 6.19126C115.493 6.19126 115.493 5.63797 115.79 5.63797H123.534C123.834 5.63797 123.834 6.19126 123.534 6.19126L123.538 6.18722Z" fill="#F8F8F9"/>
</g>
<defs>
<clipPath id="clip0_202_548">
<rect width="160" height="28" fill="white"/>
</clipPath>
</defs>
</svg>
